<svg width="1200" height="628" viewBox="0 0 1200 628" fill="none" xmlns="http://www.w3.org/2000/svg">
    <g clip-path="url(#clip0_1491_8965)">
        <rect width="1200" height="628" fill="#FAFAFA" />
        <g clip-path="url(#clip1_1491_8965)" filter="url(#filter0_d_1491_8965)">
            <g filter="url(#filter1_f_1491_8965)">

            </g>

            <rect x="216.031" y="190.031" width="767.587" height="361.939" rx="14.2146" fill="#ffffff" />
            <rect x="216.031" y="190.031" width="767.587" height="361.939" rx="14.2146"
                stroke="url(#paint0_linear_1491_8965)" stroke-width="4.06131" />
        </g>
      <g filter="url(#filter1_d_4_119)">
<path d="M450 79C450 77.3432 451.343 76 453 76C454.657 76 456 77.3432 456 79V93C456 94.6569 454.657 96 453 96C451.343 96 450 94.6569 450 93V79Z" fill="black"/>
<path d="M450 139C450 137.343 451.343 136 453 136C454.657 136 456 137.343 456 139V153C456 154.657 454.657 156 453 156C451.343 156 450 154.657 450 153V139Z" fill="black"/>
<path d="M416 119C414.343 119 413 117.657 413 116C413 114.343 414.343 113 416 113H430C431.657 113 433 114.343 433 116C433 117.657 431.657 119 430 119H416Z" fill="black"/>
<path d="M416 119C414.343 119 413 117.657 413 116C413 114.343 414.343 113 416 113H430C431.657 113 433 114.343 433 116C433 117.657 431.657 119 430 119H416Z" fill="black"/>
<path d="M476 119C474.343 119 473 117.657 473 116C473 114.343 474.343 113 476 113H490C491.657 113 493 114.343 493 116C493 117.657 491.657 119 490 119H476Z" fill="black"/>
<path d="M424.716 91.9584C423.544 90.7868 423.544 88.8873 424.716 87.7157C425.887 86.5442 427.787 86.5442 428.958 87.7157L438.858 97.6152C440.029 98.7868 440.029 100.686 438.858 101.858C437.686 103.029 435.787 103.029 434.615 101.858L424.716 91.9584Z" fill="black"/>
<path d="M467.142 134.385C465.971 133.213 465.971 131.314 467.142 130.142C468.314 128.971 470.213 128.971 471.385 130.142L481.284 140.042C482.456 141.213 482.456 143.113 481.284 144.284C480.113 145.456 478.213 145.456 477.042 144.284L467.142 134.385Z" fill="black"/>
<path d="M428.958 144.284C427.787 145.456 425.887 145.456 424.716 144.284C423.544 143.113 423.544 141.213 424.716 140.042L434.615 130.142C435.787 128.971 437.686 128.971 438.858 130.142C440.029 131.314 440.029 133.213 438.858 134.385L428.958 144.284Z" fill="black"/>
<path d="M428.958 144.284C427.787 145.456 425.887 145.456 424.716 144.284C423.544 143.113 423.544 141.213 424.716 140.042L434.615 130.142C435.787 128.971 437.686 128.971 438.858 130.142C440.029 131.314 440.029 133.213 438.858 134.385L428.958 144.284Z" fill="black"/>
<path d="M471.385 101.858C470.213 103.029 468.314 103.029 467.142 101.858C465.971 100.686 465.971 98.7868 467.142 97.6152L477.042 87.7157C478.213 86.5442 480.113 86.5442 481.284 87.7157C482.456 88.8873 482.456 90.7868 481.284 91.9584L471.385 101.858Z" fill="black"/>
<path d="M417.931 104.875C416.4 104.241 415.673 102.486 416.307 100.955C416.941 99.4245 418.696 98.6976 420.227 99.3316L425.77 101.628C427.301 102.262 428.028 104.017 427.394 105.547C426.76 107.078 425.005 107.805 423.474 107.171L417.931 104.875Z" fill="black"/>
<path d="M480.755 130.897C479.224 130.263 478.497 128.508 479.131 126.978C479.765 125.447 481.52 124.72 483.051 125.354L488.594 127.65C490.125 128.284 490.852 130.039 490.218 131.57C489.584 133.101 487.829 133.827 486.298 133.193L480.755 130.897Z" fill="black"/>
<path d="M441.875 151.594C441.241 153.125 439.486 153.852 437.955 153.218C436.425 152.584 435.698 150.829 436.332 149.298L438.628 143.755C439.262 142.224 441.017 141.497 442.548 142.131C444.078 142.765 444.805 144.52 444.171 146.051L441.875 151.594Z" fill="black"/>
<path d="M441.416 152.703C441.035 153.621 439.486 153.852 437.955 153.218C436.424 152.584 435.492 151.325 435.872 150.407L439.087 142.646C439.467 141.728 441.017 141.497 442.547 142.131C444.078 142.765 445.011 144.024 444.63 144.942L441.416 152.703Z" fill="black"/>
<path d="M467.438 89.879C467.058 90.7974 465.508 91.028 463.978 90.3939C462.447 89.7599 461.514 88.5013 461.895 87.5829L465.109 79.8223C465.49 78.9039 467.039 78.6733 468.57 79.3074C470.101 79.9414 471.033 81.2 470.653 82.1184L467.438 89.879Z" fill="black"/>
<path d="M436.332 83.227C435.698 81.6963 436.425 79.9414 437.955 79.3073C439.486 78.6733 441.241 79.4002 441.875 80.9309L444.171 86.4742C444.805 88.0049 444.078 89.7598 442.548 90.3938C441.017 91.0279 439.262 90.301 438.628 88.7703L436.332 83.227Z" fill="black"/>
<path d="M462.354 146.051C461.72 144.52 462.447 142.765 463.978 142.131C465.508 141.497 467.263 142.224 467.897 143.755L470.193 149.298C470.828 150.829 470.101 152.584 468.57 153.218C467.039 153.852 465.284 153.125 464.65 151.594L462.354 146.051Z" fill="black"/>
<path d="M420.227 133.193C418.696 133.827 416.941 133.1 416.307 131.57C415.673 130.039 416.4 128.284 417.931 127.65L423.474 125.354C425.005 124.72 426.76 125.447 427.394 126.978C428.028 128.508 427.301 130.263 425.77 130.897L420.227 133.193Z" fill="black"/>
<path d="M419.118 133.653C418.2 134.033 416.941 133.1 416.307 131.57C415.673 130.039 415.904 128.49 416.822 128.109L424.583 124.895C425.501 124.514 426.76 125.447 427.394 126.978C428.028 128.508 427.798 130.058 426.879 130.438L419.118 133.653Z" fill="black"/>
<path d="M481.942 107.63C481.024 108.011 479.765 107.078 479.131 105.547C478.497 104.017 478.728 102.467 479.646 102.087L487.407 98.8723C488.325 98.4919 489.584 99.4244 490.218 100.955C490.852 102.486 490.621 104.035 489.703 104.416L481.942 107.63Z" fill="black"/>
</g>
<path d="M551.291 99.3636V143H543.322L524.338 115.536H524.018V143H514.793V99.3636H522.889L541.724 126.807H542.108V99.3636H551.291ZM579.73 129.065V110.273H588.807V143H580.093V137.055H579.752C579.013 138.973 577.784 140.514 576.066 141.679C574.361 142.844 572.28 143.426 569.823 143.426C567.635 143.426 565.711 142.929 564.049 141.935C562.387 140.94 561.087 139.527 560.15 137.695C559.226 135.862 558.757 133.668 558.743 131.111V110.273H567.82V129.491C567.834 131.423 568.353 132.95 569.375 134.072C570.398 135.195 571.769 135.756 573.488 135.756C574.581 135.756 575.604 135.507 576.556 135.01C577.507 134.499 578.275 133.746 578.857 132.751C579.453 131.757 579.745 130.528 579.73 129.065ZM596.067 143V110.273H604.718V116.047H605.102C605.783 114.129 606.92 112.616 608.511 111.509C610.102 110.401 612.005 109.847 614.221 109.847C616.465 109.847 618.376 110.408 619.952 111.53C621.529 112.638 622.58 114.143 623.106 116.047H623.447C624.114 114.172 625.322 112.673 627.069 111.551C628.83 110.415 630.911 109.847 633.312 109.847C636.366 109.847 638.844 110.82 640.748 112.766C642.665 114.697 643.624 117.439 643.624 120.99V143H634.569V122.78C634.569 120.962 634.086 119.598 633.12 118.689C632.154 117.78 630.947 117.325 629.498 117.325C627.85 117.325 626.565 117.851 625.641 118.902C624.718 119.939 624.256 121.31 624.256 123.014V143H615.457V122.588C615.457 120.983 614.995 119.705 614.072 118.753C613.163 117.801 611.962 117.325 610.471 117.325C609.462 117.325 608.553 117.581 607.744 118.092C606.948 118.589 606.316 119.293 605.847 120.202C605.379 121.097 605.144 122.148 605.144 123.355V143H596.067ZM665.581 143.639C662.271 143.639 659.409 142.936 656.994 141.53C654.594 140.109 652.74 138.135 651.433 135.607C650.126 133.064 649.473 130.116 649.473 126.764C649.473 123.384 650.126 120.429 651.433 117.901C652.74 115.358 654.594 113.384 656.994 111.977C659.409 110.557 662.271 109.847 665.581 109.847C668.891 109.847 671.746 110.557 674.146 111.977C676.561 113.384 678.422 115.358 679.729 117.901C681.036 120.429 681.689 123.384 681.689 126.764C681.689 130.116 681.036 133.064 679.729 135.607C678.422 138.135 676.561 140.109 674.146 141.53C671.746 142.936 668.891 143.639 665.581 143.639ZM665.624 136.608C667.129 136.608 668.386 136.182 669.395 135.33C670.403 134.463 671.163 133.284 671.675 131.793C672.2 130.301 672.463 128.604 672.463 126.7C672.463 124.797 672.2 123.099 671.675 121.608C671.163 120.116 670.403 118.937 669.395 118.071C668.386 117.205 667.129 116.771 665.624 116.771C664.104 116.771 662.825 117.205 661.788 118.071C660.766 118.937 659.991 120.116 659.466 121.608C658.955 123.099 658.699 124.797 658.699 126.7C658.699 128.604 658.955 130.301 659.466 131.793C659.991 133.284 660.766 134.463 661.788 135.33C662.825 136.182 664.104 136.608 665.624 136.608ZM702.506 143.639C699.139 143.639 696.241 142.957 693.812 141.594C691.398 140.216 689.537 138.27 688.23 135.756C686.923 133.227 686.27 130.237 686.27 126.786C686.27 123.419 686.923 120.464 688.23 117.922C689.537 115.379 691.376 113.398 693.749 111.977C696.135 110.557 698.933 109.847 702.143 109.847C704.303 109.847 706.313 110.195 708.173 110.891C710.048 111.572 711.682 112.602 713.074 113.98C714.48 115.358 715.574 117.091 716.355 119.179C717.136 121.253 717.527 123.682 717.527 126.466V128.959H689.892V123.334H708.983C708.983 122.027 708.699 120.869 708.131 119.861C707.563 118.852 706.774 118.064 705.766 117.496C704.771 116.913 703.614 116.622 702.293 116.622C700.915 116.622 699.693 116.942 698.628 117.581C697.577 118.206 696.753 119.051 696.156 120.116C695.56 121.168 695.254 122.339 695.24 123.632V128.98C695.24 130.599 695.538 131.999 696.135 133.178C696.746 134.357 697.605 135.266 698.713 135.905C699.821 136.544 701.135 136.864 702.655 136.864C703.663 136.864 704.587 136.722 705.425 136.438C706.263 136.153 706.98 135.727 707.577 135.159C708.173 134.591 708.628 133.895 708.94 133.071L717.335 133.625C716.909 135.642 716.036 137.403 714.714 138.909C713.408 140.401 711.717 141.565 709.643 142.403C707.584 143.227 705.205 143.639 702.506 143.639ZM732.527 124.08V143H723.45V110.273H732.101V116.047H732.484C733.209 114.143 734.423 112.638 736.128 111.53C737.832 110.408 739.899 109.847 742.328 109.847C744.601 109.847 746.582 110.344 748.273 111.338C749.963 112.332 751.277 113.753 752.214 115.599C753.152 117.432 753.621 119.619 753.621 122.162V143H744.544V123.781C744.558 121.778 744.047 120.216 743.01 119.094C741.973 117.957 740.545 117.389 738.727 117.389C737.506 117.389 736.426 117.652 735.489 118.178C734.565 118.703 733.841 119.47 733.315 120.479C732.804 121.473 732.541 122.673 732.527 124.08Z" fill="black"/>
 <!-- <path fill-rule="evenodd" clip-rule="evenodd"
            d="M525.634 85.3021C525.634 83.9867 524.567 82.9204 523.252 82.9204L487.439 82.9204C485.874 82.9204 484.505 83.1474 483.331 83.6014C482.157 84.0903 481.179 84.7363 480.397 85.5395C479.582 86.3776 478.979 87.3205 478.587 88.3682C478.196 89.4507 478.001 90.5682 478.001 91.7206V96.9927C478.001 99.7436 480.231 101.974 482.981 101.974H511.344L497.054 92.447H523.252C524.567 92.447 525.634 91.3807 525.634 90.0654V85.3021ZM478 128.172C478 129.487 479.066 130.553 480.382 130.553L516.194 130.553C517.759 130.553 519.129 130.326 520.302 129.872C521.476 129.383 522.454 128.737 523.237 127.934C524.052 127.096 524.655 126.153 525.046 125.105C525.437 124.023 525.633 122.905 525.633 121.753V116.481C525.633 113.73 523.403 111.5 520.652 111.5H492.29L506.58 121.027H480.382C479.066 121.027 478 122.093 478 123.408V128.172Z"
            fill="#6966FB" />
        <path
            d="M584.185 116.389C584.185 109.912 581.18 105.772 573.702 103.768L561.282 100.43C559.412 99.9622 558.277 98.827 558.277 96.6235C558.277 93.2848 560.814 91.8825 564.821 91.8825C569.628 91.8825 571.364 94.4867 571.364 97.6251V98.4264H581.981V97.2912C581.981 88.7442 575.304 83.0684 564.821 83.0684C553.736 83.0684 547.126 88.4103 547.126 97.6919C547.126 105.304 550.865 108.509 558.143 110.312L569.829 113.25C572.166 113.851 573.034 115.32 573.034 117.39C573.034 120.996 569.895 122.932 565.154 122.932C559.879 122.932 557.342 120.529 557.342 116.589V115.654H546.324V116.923C546.324 126.338 553.87 131.68 565.088 131.68C575.905 131.68 584.185 125.737 584.185 116.389Z"
            fill="#EFEFF7" />
        <path
            d="M620.603 130.745V108.977C620.603 100.363 614.794 94.9541 604.844 94.9541C596.631 94.9541 590.688 99.1609 589.219 106.172H599.436C600.37 104.436 602.173 103.635 604.51 103.635C607.649 103.635 609.385 105.571 609.385 108.175V112.249C607.649 110.846 604.444 109.644 600.237 109.644C592.09 109.644 586.682 113.317 586.682 120.529C586.682 126.939 591.489 131.546 599.502 131.546C604.043 131.546 607.849 130.144 609.852 127.807V130.745H620.603ZM603.242 124.401C599.703 124.401 597.165 122.999 597.165 120.328C597.165 117.59 599.569 116.255 603.375 116.255C606.847 116.255 609.385 117.991 609.385 120.328C609.385 122.665 606.647 124.401 603.242 124.401Z"
            fill="#EFEFF7" />
        <path
            d="M636.86 82H625.642V130.745H636.326V127.072C637.394 129.009 641.134 131.546 645.942 131.546C655.824 131.546 660.765 124.335 660.765 116.255V110.245C660.765 102.166 655.824 94.9541 645.942 94.9541C641.735 94.9541 638.329 96.8906 636.86 98.6935V82ZM649.547 110.98V115.521C649.547 119.527 647.544 122.331 643.137 122.331C639.798 122.331 636.86 120.128 636.86 115.721V110.78C636.86 106.372 639.798 104.169 643.137 104.169C647.544 104.169 649.547 106.84 649.547 110.98Z"
            fill="#EFEFF7" />
        <path
            d="M695.756 116.789V110.379C695.756 102.032 690.348 94.9541 679.731 94.9541C669.114 94.9541 663.171 101.632 663.171 111.381V115.721C663.171 125.737 669.915 131.546 679.998 131.546C687.944 131.546 694.354 126.805 695.556 120.328H685.674C684.939 122.064 683.136 123.667 679.998 123.667C676.058 123.667 673.988 121.063 673.988 117.59V116.789H695.756ZM673.988 109.511C673.988 105.504 675.724 102.9 679.797 102.9C683.737 102.9 685.473 105.504 685.473 108.977V110.245H673.988V109.511Z"
            fill="#EFEFF7" />
        <path
            d="M720.62 95.4883H720.086C715.078 95.4883 711.606 96.6903 710.537 101.899V95.7554H699.92V130.745H711.138V114.719C711.138 108.643 713.943 106.506 719.151 106.506H720.62V95.4883Z"
            fill="#EFEFF7" /> -->
    </g>
    <defs>
        <filter id="filter0_d_1491_8965" x="-4" y="164" width="1208" height="398" filterUnits="userSpaceOnUse"
            color-interpolation-filters="sRGB">
            <feFlood flood-opacity="0" result="BackgroundImageFix" />
            <feColorMatrix in="SourceAlpha" type="matrix" values="0 0 0 0 0 0 0 0 0 0 0 0 0 0 0 0 0 0 127 0"
                result="hardAlpha" />
            <feOffset dy="4" />
            <feGaussianBlur stdDeviation="2" />
            <feColorMatrix type="matrix" values="0 0 0 0 0 0 0 0 0 0 0 0 0 0 0 0 0 0 0.25 0" />
            <feBlend mode="normal" in2="BackgroundImageFix" result="effect1_dropShadow_1491_8965" />
            <feBlend mode="normal" in="SourceGraphic" in2="effect1_dropShadow_1491_8965" result="shape" />
        </filter>
        <filter id="filter1_f_1491_8965" x="-11" y="153.331" width="1222" height="393.391" filterUnits="userSpaceOnUse"
            color-interpolation-filters="sRGB">
            <feFlood flood-opacity="0" result="BackgroundImageFix" />
            <feBlend mode="normal" in="SourceGraphic" in2="BackgroundImageFix" result="shape" />
            <feGaussianBlur stdDeviation="5.5" result="effect1_foregroundBlur_1491_8965" />
        </filter>
        <linearGradient id="paint0_linear_1491_8965" x1="599.824" y1="188" x2="599.824" y2="554"
            gradientUnits="userSpaceOnUse">
            <stop stop-color="$ASSET_BORDER_COLOR_1" />
            <stop offset="1" stop-color="$ASSET_BORDER_COLOR_2" />
        </linearGradient>
        <clipPath id="clip0_1491_8965">
            <rect width="1200" height="628" fill="white" />
        </clipPath>
        <clipPath id="clip1_1491_8965">
            <rect width="1200" height="390" fill="white" transform="translate(0 164)" />
        </clipPath>
    </defs>
</svg>